<?xml version="1.0" standalone="no"?>
<!DOCTYPE svg PUBLIC "-//W3C//DTD SVG 20010904//EN"
 "http://www.w3.org/TR/2001/REC-SVG-20010904/DTD/svg10.dtd">
<svg version="1.0" xmlns="http://www.w3.org/2000/svg"
 width="512.000000pt" height="512.000000pt" viewBox="0 0 512.000000 512.000000"
 preserveAspectRatio="xMidYMid meet">

<g transform="translate(0.000000,512.000000) scale(0.100000,-0.100000)"
fill="grey" stroke="none">
<path d="M3110 3605 c-21 -10 -220 -201 -507 -488 l-473 -471 -47 46 c-27 26
-65 54 -85 63 -134 55 -288 -49 -288 -195 0 -58 24 -108 78 -163 l47 -47 -173
-173 -172 -172 -367 367 c-250 249 -380 372 -405 383 -167 69 -342 -106 -273
-273 19 -46 902 -934 957 -963 48 -25 130 -25 183 0 25 12 131 110 290 270
137 138 254 251 260 251 6 0 123 -113 260 -251 159 -160 265 -258 290 -270 53
-24 128 -24 179 1 28 13 327 306 922 902 952 953 911 908 902 1008 -11 108
-83 180 -187 188 -32 2 -76 -1 -97 -8 -32 -10 -191 -164 -837 -808 l-797 -797
-165 165 c-91 91 -165 169 -165 175 0 6 212 222 470 480 510 510 507 506 498
604 -7 66 -36 120 -87 156 -35 24 -53 30 -109 32 -45 2 -79 -2 -102 -12z"/>
</g>
</svg>
